<svg width="52" height="52" viewBox="0 0 32 32" xmlns="http://www.w3.org/2000/svg">

    <g fill="#2188e4" opacity="0.4">

        <rect x="11.5" y="6.5" width="1" height="1" />

        <rect x="11.5" y="16.5" width="1" height="1" />

        <rect x="6.5" y="11.5" width="1" height="1" />

        <rect x="16.5" y="11.5" width="1" height="1" />

        <rect x="9.5" y="9.5" width="1" height="1" />

        <rect x="13.5" y="9.5" width="1" height="1" />

        <rect x="9.5" y="13.5" width="1" height="1" />

        <rect x="13.5" y="13.5" width="1" height="1" />

        <rect x="10.5" y="8.5" width="1" height="1" />

        <rect x="12.5" y="8.5" width="1" height="1" />

        <rect x="8.5" y="10.5" width="1" height="1" />

        <rect x="14.5" y="10.5" width="1" height="1" />

        <rect x="8.5" y="12.5" width="1" height="1" />

        <rect x="14.5" y="12.5" width="1" height="1" />

        <rect x="10.5" y="14.5" width="1" height="1" />

        <rect x="12.5" y="14.5" width="1" height="1" />

    </g>

    <g fill="#2188e4" opacity="0.7">

        <rect x="11.5" y="7.5" width="1" height="1" />

        <rect x="11.5" y="15.5" width="1" height="1" />

        <rect x="7.5" y="11.5" width="1" height="1" />

        <rect x="15.5" y="11.5" width="1" height="1" />

        <rect x="10.5" y="9.5" width="1" height="1" />

        <rect x="12.5" y="9.5" width="1" height="1" />

        <rect x="9.5" y="10.5" width="1" height="1" />

        <rect x="13.5" y="10.5" width="1" height="1" />

        <rect x="9.5" y="12.5" width="1" height="1" />

        <rect x="13.5" y="12.5" width="1" height="1" />

        <rect x="10.5" y="13.5" width="1" height="1" />

        <rect x="12.5" y="13.5" width="1" height="1" />

        <rect x="10.5" y="10.5" width="1" height="1" />

        <rect x="12.5" y="10.5" width="1" height="1" />

        <rect x="10.5" y="12.5" width="1" height="1" />

        <rect x="12.5" y="12.5" width="1" height="1" />

    </g>

    <g fill="#2188e4" opacity="1.0">

        <rect x="11.5" y="8.5" width="1" height="1" />

        <rect x="11.5" y="14.5" width="1" height="1" />

        <rect x="8.5" y="11.5" width="1" height="1" />

        <rect x="14.5" y="11.5" width="1" height="1" />

        <rect x="11.5" y="9.5" width="1" height="1" />

        <rect x="11.5" y="13.5" width="1" height="1" />

        <rect x="9.5" y="11.5" width="1" height="1" />

        <rect x="13.5" y="11.5" width="1" height="1" />

        <rect x="11.5" y="10.5" width="1" height="1" />

        <rect x="11.5" y="12.5" width="1" height="1" />

        <rect x="10.5" y="11.5" width="1" height="1" />

        <rect x="12.5" y="11.5" width="1" height="1" />

        <rect x="11.5" y="11.5" width="1" height="1" />

    </g>

</svg>

